<?xml version="1.0" encoding="iso-8859-1"?>
<!-- Uploaded to: SVG Repo, www.svgrepo.com, Generator: SVG Repo Mixer Tools -->
<svg height="800px" width="800px" version="1.1" id="Layer_1" xmlns="http://www.w3.org/2000/svg" xmlns:xlink="http://www.w3.org/1999/xlink" 
	 viewBox="0 0 503.467 503.467" xml:space="preserve">
<g transform="translate(1 13)">
	<polygon style="fill:#FF7474;" points="395.8,42.467 395.8,76.6 344.6,76.6 344.6,42.467 276.333,42.467 276.333,76.6 
		225.133,76.6 225.133,42.467 156.867,42.467 156.867,76.6 105.667,76.6 105.667,42.467 37.4,42.467 37.4,76.6 3.267,76.6 
		3.267,196.067 498.2,196.067 498.2,76.6 464.067,76.6 464.067,42.467 	"/>
	<polygon style="fill:#80D6FA;" points="3.267,435 498.2,435 498.2,315.533 3.267,315.533 	"/>
	<polygon style="fill:#FFE079;" points="3.267,315.533 498.2,315.533 498.2,196.067 3.267,196.067 	"/>
</g>
<path style="fill:#51565F;" d="M499.2,452.267H4.267C1.707,452.267,0,450.56,0,448V89.6c0-2.56,1.707-4.267,4.267-4.267h29.867
	V55.467c0-2.56,1.707-4.267,4.267-4.267h68.267c2.56,0,4.267,1.707,4.267,4.267v29.867H153.6V55.467c0-2.56,1.707-4.267,4.267-4.267
	h68.267c2.56,0,4.267,1.707,4.267,4.267v29.867h42.667V55.467c0-2.56,1.707-4.267,4.267-4.267H345.6c2.56,0,4.267,1.707,4.267,4.267
	v29.867h42.667V55.467c0-2.56,1.707-4.267,4.267-4.267h68.267c2.56,0,4.267,1.707,4.267,4.267v29.867H499.2
	c2.56,0,4.267,1.707,4.267,4.267V448C503.467,450.56,501.76,452.267,499.2,452.267z M8.533,443.733h486.4V93.867h-29.867
	c-2.56,0-4.267-1.707-4.267-4.267V59.733h-59.733v25.6h29.867c2.56,0,4.267,1.707,4.267,4.267c0,2.56-1.707,4.267-4.267,4.267H345.6
	c-2.56,0-4.267-1.707-4.267-4.267V59.733H281.6v25.6h29.867c2.56,0,4.267,1.707,4.267,4.267c0,2.56-1.707,4.267-4.267,4.267h-85.333
	c-2.56,0-4.267-1.707-4.267-4.267V59.733h-59.733v25.6H192c2.56,0,4.267,1.707,4.267,4.267c0,2.56-1.707,4.267-4.267,4.267h-85.333
	c-2.56,0-4.267-1.707-4.267-4.267V59.733H42.667v25.6h29.867c2.56,0,4.267,1.707,4.267,4.267c0,2.56-1.707,4.267-4.267,4.267h-64
	V204.8h456.533c2.56,0,4.267,1.707,4.267,4.267c0,2.56-1.707,4.267-4.267,4.267H8.533v110.933h456.533
	c2.56,0,4.267,1.707,4.267,4.267c0,2.56-1.707,4.267-4.267,4.267H8.533V443.733z"/>
</svg>